HIERARCHY
ROOT Hips
{
  OFFSET 0 0 0
  CHANNELS 6 Xposition Yposition Zposition Zrotation Yrotation Xrotation
  JOINT LeftThigh
  {
    OFFSET 8.409438 0 -5.917753
    CHANNELS 3 Zrotation Yrotation Xrotation
    JOINT LeftLeg
    {
      OFFSET 0 0 -42.358652
      CHANNELS 3 Zrotation Yrotation Xrotation
      JOINT LeftFoot
      {
        OFFSET 0 0 -39.357303
        CHANNELS 3 Zrotation Yrotation Xrotation
      }
    }
  }
  JOINT RightThigh
  {
    OFFSET -8.409438 0 -5.917753
    CHANNELS 3 Zrotation Yrotation Xrotation
    JOINT RightLeg
    {
      OFFSET 0 0 -42.358652
      CHANNELS 3 Zrotation Yrotation Xrotation
      JOINT RightFoot
      {
        OFFSET 0 0 -39.357303
        CHANNELS 3 Zrotation Yrotation Xrotation
      }
    }
  }
  JOINT SpineLow
  {
    OFFSET 0 0 4.719101
    CHANNELS 3 Zrotation Yrotation Xrotation
    JOINT SpineMid
    {
      OFFSET 0 0 12.899191
      CHANNELS 3 Zrotation Yrotation Xrotation
      JOINT Chest
      {
        OFFSET 0 0 12.899191
        CHANNELS 3 Zrotation Yrotation Xrotation
        JOINT LeftShoulder
        {
          OFFSET 7.550562 1.41573 9.438202
          CHANNELS 3 Zrotation Yrotation Xrotation
          JOINT LeftArm
          {
            OFFSET 9.155056 0 4.247191
            CHANNELS 3 Zrotation Yrotation Xrotation
            JOINT LeftForearm
            {
              OFFSET 0 0 25.771955
              CHANNELS 3 Zrotation Yrotation Xrotation
              JOINT LeftHand
              {
                OFFSET 0 0 25.197169
                CHANNELS 3 Zrotation Yrotation Xrotation
              }
            }
          }
        }
        JOINT RightShoulder
        {
          OFFSET -7.550562 1.41573 9.438202
          CHANNELS 3 Zrotation Yrotation Xrotation
          JOINT RightArm
          {
            OFFSET -9.155056 0 4.247191
            CHANNELS 3 Zrotation Yrotation Xrotation
            JOINT RightForearm
            {
              OFFSET 0 0 -25.771955
              CHANNELS 3 Zrotation Yrotation Xrotation
              JOINT RightHand
              {
                OFFSET 0 0 -25.197169
                CHANNELS 3 Zrotation Yrotation Xrotation
              }
            }
          }
        }
        JOINT Neck
        {
          OFFSET 0 0 15.101124
          CHANNELS 3 Zrotation Yrotation Xrotation
          JOINT Head
          {
            OFFSET 0 0 11.325843
            CHANNELS 3 Zrotation Yrotation Xrotation
            End Site
            {
              OFFSET 0 0 14.157303
            }
          }
        }
      }
    }
  }
}
MOTION
Frames: 8
Frame Time: 0.0
0.0  93.25843  0.0  4.829887  -38.822944  -86.31652  22.198434  -9.883434  -4.19476  4.543074  1.506657  18.889109  6.669352  3.106133  4.429489  2.915203  2.651512  -18.45966  6.333695  11.29313  15.61224  1.698283  0.5821  -0.553485  -5.960561  -1.266534  -2.384503  -16.16755  -4.019508  -6.168099  -16.16755  -4.019508  -6.168099  -16.879686  4.480093  13.175757  7.767136  63.194822  50.755865  -23.741586  -14.428177  141.457567  64.996867  -39.847033  23.430041  11.631014  1.543694  31.831721  60.639509  17.777923  52.125602  -5.434857  -3.324716  -117.98125  56.877336  17.496176  4.458714  27.852661  3.320036  6.808683  20.849872  2.807918  4.965752  
0.0  93.25843  0.0  4.747826  -38.364978  -86.381549  22.281759  -10.153012  -4.320408  4.119073  1.774455  19.010561  6.504403  3.099356  4.32476  2.220902  2.512809  -18.414985  6.682153  11.495198  15.889152  1.836797  0.46262  -0.532843  -5.961005  -1.242123  -2.3397  -16.173471  -3.942487  -6.052083  -16.173472  -3.942487  -6.052083  -16.344381  4.652707  13.226795  8.452924  63.25724  51.706647  -23.836962  -15.157738  141.210833  65.349528  -39.872122  23.313885  11.891794  1.500836  31.708861  60.770448  17.851208  52.220391  -5.569037  -4.007175  -118.162235  57.044823  16.825132  4.151274  27.879889  3.45855  6.668145  20.868912  2.905932  4.853508  
0.0  93.25843  0.0  4.807696  -37.766519  -86.396283  22.154093  -10.276465  -4.6843  3.805673  2.051287  19.345278  6.513492  3.065791  4.303283  1.243455  2.390229  -18.483444  6.777131  11.627756  16.115872  1.887193  0.469656  -0.57914  -5.955539  -1.208405  -2.31201  -16.162735  -3.843846  -5.985181  -16.162733  -3.843846  -5.985181  -16.269496  4.739815  13.1285  8.955995  63.596197  52.135314  -23.987991  -15.598534  141.017223  65.704739  -39.90769  23.068752  12.081106  1.540838  31.618352  61.01778  17.826514  52.283181  -5.563373  -4.230474  -118.04332  56.950134  16.731865  4.172849  27.82118  3.572709  6.439866  20.824341  2.980635  4.676876  
0.0  93.25843  0.0  4.663773  -36.954279  -86.275827  21.989938  -10.560969  -5.092605  3.446188  2.344649  19.695894  6.436379  2.987262  4.204714  -0.289325  2.001646  -18.660684  6.997796  11.8308  16.365096  2.006886  0.474797  -0.633585  -6.053903  -1.221298  -2.306217  -16.431109  -3.885909  -5.96003  -16.431109  -3.885909  -5.96003  -15.280211  5.242189  13.210607  8.492064  63.776358  51.901407  -24.175334  -15.770753  140.866041  66.056413  -40.022405  22.723158  12.735638  1.684281  31.687437  61.375014  17.745678  52.332793  -5.554064  -4.421113  -117.890929  56.953568  16.652982  4.27393  28.128603  3.675324  6.328997  21.053955  3.056079  4.58714  
0.0  93.25843  0.0  4.728834  -36.022636  -86.280345  21.685372  -10.661167  -5.553635  3.087073  2.583249  20.105113  6.395523  2.961485  4.16383  -1.791213  1.817264  -18.766183  7.017431  12.086079  16.577494  2.092439  0.496137  -0.713123  -6.066048  -1.182617  -2.29617  -16.467708  -3.779581  -5.941306  -16.467709  -3.779582  -5.941307  -15.235652  5.5791  13.139824  8.08485  64.2246  51.482213  -24.431968  -15.841929  140.797759  66.451275  -40.144837  22.301686  12.924769  1.749382  31.701968  61.725003  17.681966  52.274894  -5.62014  -4.588243  -117.755209  57.194978  16.528789  4.466383  27.988337  3.697228  6.104028  20.949631  3.060646  4.41775  
0.0  93.25843  0.0  4.735457  -34.937359  -86.287913  21.309704  -10.808835  -5.980996  2.77939  2.772664  20.514351  6.295002  2.937079  4.127805  -3.602408  1.325607  -18.841365  6.540757  12.378535  16.59892  1.994295  0.612821  -0.905737  -6.094065  -1.1487  -2.277636  -16.54786  -3.685428  -5.897442  -16.547861  -3.685428  -5.897443  -14.980759  6.087598  13.070717  7.311014  64.685483  50.905438  -24.707978  -15.979453  140.795662  66.865349  -40.299774  21.742046  13.151963  1.798805  31.662284  62.159536  17.636426  52.194676  -5.772812  -4.619475  -117.616445  57.653062  16.26736  4.750153  27.805163  3.696201  5.878601  20.813471  3.047618  4.249337  
0.0  93.25843  0.0  4.75208  -33.588469  -86.24475  20.697796  -10.972122  -6.53237  2.477104  2.977164  20.958585  6.15669  2.932123  4.081339  -5.002826  1.176686  -18.877884  6.392336  12.620961  16.798496  2.145354  0.620737  -0.957316  -6.132329  -1.110345  -2.269663  -16.655681  -3.582712  -5.882832  -16.65568  -3.582712  -5.882832  -14.93256  6.663434  12.983422  6.658367  65.382757  50.396964  -24.921835  -16.185816  140.845565  67.447269  -40.450181  21.054416  13.437157  1.828237  31.737901  62.49519  17.748274  51.933698  -6.005726  -4.507702  -117.51437  58.28712  15.843527  5.086111  27.550705  3.66381  5.678827  20.624148  3.01161  4.102049  
0.0  93.25843  0.0  4.712165  -32.179562  -86.250434  20.165871  -11.261494  -7.028704  2.077122  3.235474  21.368304  6.049387  2.920499  4.084637  -6.185135  1.056602  -18.76273  6.083369  12.452856  17.086359  2.116171  0.806524  -1.126275  -6.179841  -1.073871  -2.249188  -16.789353  -3.48273  -5.833387  -16.789354  -3.48273  -5.833387  -14.688489  7.371098  12.910138  6.009677  66.298885  50.002071  -25.049822  -16.453876  140.902323  68.16813  -40.583893  20.298421  13.786642  1.811593  31.81904  62.927682  17.968891  51.646205  -6.35508  -4.259411  -117.430312  59.132018  15.281689  5.548145  27.267967  3.600771  5.507726  20.413845  2.953752  3.977844  
